<svg viewBox="0 0 595.28 841.89" xmlns="http://www.w3.org/2000/svg">
  <path d="M352.829,404.903l2.629-4.659l-12.957-10.621l2.249,41.034l6.58-21.915L352.829,404.903z M331.918,469.525l-20.397,13.06
    l77.007-9.623l-17.418-15.121l-2.385-10.024l-12.619-1.146l-17.313,14.379L331.918,469.525z M333.17,330.804l5.529,4.571
    l1.078,7.977l4.514-29.235l-22.104-26.719L333.17,330.804z M350.943,428.324l44.739-35.544l-0.573-24.652l2.867-14.906
    l5.162-45.864l-24.663,45.864l-15.487,14.906l-2.192,6.775l-6.983,16.443l8.029,5.447L350.943,428.324z M354.607,431.264
    l-9.168,15.58l22.69-9.164l0.595-7.635l18.928-15.48l-1.146-10.893L354.607,431.264z M315.956,280.412l-4.015,8.026
    l-9.818,105.709l28.746,0.352l10.897-13.759l-0.573-14.906l6.883-6.306l-14.34-13.76L315.956,280.412z M432.391,333.156
    l-24.663-1.146l-4.015,1.72l-0.574,35.545L432.391,333.156z M462.555,264.242l1.383-25.681l-10.324-11.466l-33.268,43.571
    l11.472,39.558L462.555,264.242z M421.493,528.652l-0.573-13.759l-25.237-5.733l-30.399,4.013l-2.867,5.16l50.474,21.785
    L421.493,528.652z M375.234,509.162l-63.293-15.481l-11.472-5.732l11.968,21.442L375.234,509.162z M400.121,485.468
    l-10.932,12.282l4.125,9.622l47.441-21.766L400.121,485.468z M321.834,486.021l-0.716,1.927l-5.735,4.586l56.783,12.612
    l3.068-4.004l0.916-3.437l0.688-1.833l4.526-7.979l0.516-0.04l3.438-2.749l-3.438-8.707l-55.234,6.874L321.834,486.021z
     M234.284,503.893l33.69-19.704l-39.488-23.759l-26.671-10.893l5.162,8.6l-6.155,43.464L234.284,503.893z M280.395,628.407
    l-8.03-52.744l-4.589-2.866l-8.03-21.786l-7.457-1.146l-6.309,5.16l-29.802,53.571L280.395,628.407z M255.599,544.674l8.162,5.764
    l6.506,9.816l-0.77-53.96l-5.162-12.613l-22.487,30.373l11.459,14.663L255.599,544.674z M373.313,431.764l-1.721,17.773
    l13.767,17.198l18.065-8.437l-5.271-10.997l14.438-31.388l-29.527,7.825L373.313,431.764z M358.975,562.478l-16.061-18.346
    l-49.327-25.799l4.588,67.649l26.384-13.759l48.753,13.759l-0.572-10.893l-5.162-13.186L358.975,562.478z M430.697,472.046
    l44.004-8.019l19.939-11.914l12.314-41.562l-40.046,35.375l-12.376-1.833L430.697,472.046z M383.638,578.529l25.237-17.198
    l-7.457-2.294l-32.693-4.586l11.472,33.251L383.638,578.529z M393.962,471.322l-5.735,8.6h34.414l26.621-42.014l0.91-8.438
    l-43.018,16.626l1.083,10.14l-8.709,9.395L393.962,471.322z M325.133,470.176l12.619-13.187l2.867-26.944l-5.162-26.946
    l-5.735,0.573l-34.474,62.646l18.987-4.742L325.133,470.176z M294.79,394.835l-5.792,76.487l35.586-69.843L294.79,394.835z
     M285.622,501.372l-5.762,1.528l-7.92,10.08l3.84,19.68L285.622,501.372z M301.043,635.287L288.98,507.94l-13.92,48.72
    l12.48,54.24L301.043,635.287z M196.08,443.23l56.311,25.149l-5.042-12.601l19.854,8.09l-18.354-23.506l-7.459-5.662l-4.013-8.097
    l-38.429-45.864l3.441,26.945l6.883,12.039l-12.574-10.914L196.08,443.23z M354.226,681.635h-1c3.131,0,5.67-2.538,5.67-5.669
    v-12.835c0-3.039-2.394-5.513-5.396-5.656v-0.014l-41.656,0.016V705.7h42.383c3.132,0,5.67-2.539,5.67-5.67v-12.726
    C359.896,684.174,357.357,681.635,354.226,681.635z M320.953,666.571h28.831V676.9h-28.831V666.571z M350.039,696.59h-29.086
    v-10.571h29.086V696.59z M368.289,705.7h9.111v-48.224h-9.111V705.7z M207.551,575.663l16.191,8.188l22.002-40.781l-5.271-5.728
    l3.896-4.124l-15.596-14.313l-54.307,29.434l-19.481,5.04l47.403,22.283l6.883-5.732L207.551,575.663z M258.628,666.571h18.459
    V705.7h9.111v-39.129h18.459v-9.11h-46.029V666.571z M249.458,657.461h-37.332c-3.132,0-5.67,2.538-5.67,5.67v17.314
    c0,3.132,2.539,5.67,5.67,5.67h33.891v10.475h-30.45v-5.876h-9.111v9.316c0,3.131,2.539,5.67,5.67,5.67h37.332
    c2.831,0,5.169-2.076,5.594-4.788l0.076-18.238c0-3.131-2.538-5.669-5.67-5.669h-33.891v-10.434h30.45v5.953h9.111v-9.394
    C255.128,659.999,252.59,657.461,249.458,657.461z M383.982,666.571h18.459V705.7h9.111v-39.129h18.459v-9.11h-46.029V666.571z
     M357.826,610.062l48.181-6.88l-75.712-25.226l-1.721,10.319l-21.795,0.574l7.456,47.011L357.826,610.062z M545.179,677.033
    h-16.341l20.568-12.307v-7.266h-43.08v9.11h25.946l-16.685,9.454v10.118h26.15v10.446H511.33v-5.97h-9.111v9.395
    c0,3.132,2.539,5.67,5.67,5.67h37.29c3.132,0,5.67-2.538,5.67-5.67v-17.313C550.849,679.571,548.311,677.033,545.179,677.033z
     M550.547,376.727l-39.003,28.092l27.532,16.053l20.648-25.799l5.735-16.052L550.547,376.727z M436.863,705.7h47.531v-9.11
    h-38.421v-10.446h29.961v-9.11h-29.961v-10.462h38.421v-9.11l-47.531,0.016V705.7z M486.554,658.702h2.515v5.223h1.242v-5.223
    h2.516v-1.242h-6.272V658.702z M296.455,508.587l6.309,10.319l46.459,16.053l8.03,11.466l57.357,13.759l18.354-7.452
    l-81.447-38.411L296.455,508.587z M133.212,492.437l-16.286,0.671l20.87,16.513L133.212,492.437z M180.02,291.305l12.045,2.866
    l6.309,10.32l-1.72-50.451l-30.399-47.584l-0.574-7.453l-14.913-14.906l4.015,68.223L180.02,291.305z M270.07,461.576l7.457,4.586
    l-5.736-26.371l-5.736-4.587l-8.03-29.238l-18.354-18.346l8.03,45.29L270.07,461.576z M189.197,353.795l-4.015,6.88l21.222,16.052
    l31.546,30.958l-4.588-18.346l-14.913-33.251l-11.185-26.945l-39.577-23.505L189.197,353.795z M293.587,372.141l6.883-29.812
    l-6.31-17.199l-1.721,12.613l-24.006,53.427l17.124,57.221L293.587,372.141z M193.782,657.461h-37.081
    c-3.132,0-5.67,2.538-5.67,5.67v36.899c0,3.131,2.539,5.67,5.67,5.67h37.081c3.132,0,5.67-2.539,5.67-5.67v-36.899
    C199.452,659.999,196.914,657.461,193.782,657.461z M190.341,696.59h-30.2v-30.019h30.2V696.59z M143.444,681.466v-18.335
    c0-3.132-2.539-5.67-5.67-5.67l-40.545,0.016V705.7h9.111v-18.564h23.322l5.99,18.564h9.111l-6.019-18.653
    C141.412,686.586,143.444,684.267,143.444,681.466z M134.333,678.025h-27.994v-11.454h27.994V678.025z M297.187,316.902
    l5.761,17.521l4.033-55.157L288.545,229.3l-1.729,55.157l9.794,20.765L297.187,316.902z M46.1,705.685h9.111v-19.557h27.418v-9.11
    H55.211v-10.446h36.732v-9.11H46.1V705.685z M157.077,509.733l4.588,9.173l25.811,12.039l2.575-4.143l5.959-7.561l7.563-9.164
    l7.419-3.211L157.65,495.4l-22.943-5.732l6.31,12.612L157.077,509.733z M101.689,515.552l1.493-3.976l5.475,4.969l29.364,0.994
    l-47.779-44.221L30.02,460.897l39.319,50.679L101.689,515.552z M310.221,251.747l12.045-37.838l-6.31-77.969l-28.105,38.985
    l4.015,41.851L310.221,251.747z M497.484,662.478l-2.016-5.017h-2.186v6.464h1.457v-4.651l1.868,4.651h1.751l1.803-4.487v4.487
    h1.458v-6.464h-2.12L497.484,662.478z"></path>
</svg>
