<?xml version="1.0" encoding="utf-8"?>
<!-- Generator: Adobe Illustrator 19.2.0, SVG Export Plug-In . SVG Version: 6.00 Build 00  -->
<svg version="1.1" id="Layer_1" xmlns="http://www.w3.org/2000/svg" xmlns:xlink="http://www.w3.org/1999/xlink" x="0px" y="0px"
	 viewBox="0 0 504 144" style="enable-background:new 0 0 504 144;" xml:space="preserve">
<style type="text/css">
	.st0{fill:#CD2027;}
</style>
<g id="XMLID_2_">
	<path id="XMLID_22_" class="st0" d="M295.6,95.6v-19l6.4,6.4h31.9v-6.5h-38.3V64.9h41.8v-6.5h-48.2V102h48.1v-6.5L295.6,95.6
		L295.6,95.6z M248,102L248,102h31v-25h-29.2l6.5,6.5h16.2v12.1H248l0,0c-8.5,0-15.4-6.9-15.4-15.4s6.9-15.4,15.4-15.4h31v-6.5h-31
		l0,0c-12.1,0-21.8,9.8-21.8,21.8C226.1,92.3,235.9,102,248,102 M119.1,95.6v-19l6.4,6.4h31.9v-6.5h-38.3V64.9h41.8v-6.5h-48.2V102
		h48.1v-6.5L119.1,95.6L119.1,95.6z M161.3,47.3h6.5V0l-27.6,23.3L112.7,0.1v47.2h6.5V14l21.1,17.8L161.5,14v33.3H161.3z M175,64.9
		h24.6c8.5,0,15.4,6.9,15.4,15.4s-6.9,15.4-15.4,15.4H175V64.9z M199.6,58.5h-31.1V102h31.1c12.1,0,21.8-9.8,21.8-21.8
		C221.5,68.2,211.7,58.5,199.6,58.5 M179.6,47.3h6.5V5.5L179.6,0V47.3z M204.7,22.7V10.2h32.5c3.5,0,6.3,2.8,6.3,6.3
		s-2.8,6.3-6.3,6.3L204.7,22.7L204.7,22.7z M252.2,47.3l-21.5-18.2h6.5c7,0,12.7-5.7,12.7-12.7s-5.7-12.7-12.7-12.7h-39v43.7h6.5
		V29.1h15.9l21.5,18.2H252.2z M265.8,22.7V10.1h32.5c3.5,0,6.3,2.8,6.3,6.3s-2.8,6.3-6.3,6.3L265.8,22.7L265.8,22.7z M313.4,47.3
		l-21.6-18.2h6.5c7,0,12.7-5.7,12.7-12.7s-5.7-12.7-12.7-12.7h-39v43.7h6.5V29.1h15.9l21.5,18.2H313.4z M368.7,25.6
		c0,10.9-8.7,17.7-22.7,17.7c-14,0-22.7-6.8-22.7-17.7c0-10.9,8.7-17.7,22.7-17.7C360,7.9,368.7,14.7,368.7,25.6 M375.2,25.6
		c0-13.3-10.1-24.1-29.2-24.1c-19.1,0-29.2,10.8-29.2,24.1c0,13.3,10,24.1,29.2,24.1S375.2,38.9,375.2,25.6 M389.1,22.7V10.2h32.5
		c3.5,0,6.3,2.8,6.3,6.3s-2.8,6.3-6.3,6.3L389.1,22.7L389.1,22.7z M436.7,47.3l-21.6-18.2h6.5c7,0,12.7-5.7,12.7-12.7
		s-5.7-12.7-12.7-12.7h-39v43.7h6.5V29.1H405l21.5,18.2H436.7z M438.7,10.1l6.5,6.5V3.7h-6.5V10.1z M503.7,34.8
		c0-6.9-5.6-12.5-12.5-12.5h-28c-3.3,0-6.1-2.7-6.1-6.1c0-3.3,2.7-6.1,6.1-6.1h36.9V3.6h-36.9c-6.9,0-12.5,5.6-12.5,12.5
		s5.6,12.5,12.5,12.5h28c3.3,0,6.1,2.7,6.1,6.1c0,3.3-2.7,6.1-6.1,6.1h-40.1l7.7,6.5h32.4C498,47.3,503.7,41.7,503.7,34.8"/>
	<!-- BELOW PATH IS THE ICON ITSELF -->
	<path id="XMLID_18_" class="st0" d="M0.3,16.7c0,0,0.4,7.7,24,31.3l-7.8,17l20.9-6.1l11.1,29.2l12.1-30.7h27.9
		c0,0-11.2-14.7-36.9-20.9C25.9,30.4,11.9,26.7,0.3,16.7 M90.7,52.6V0H6.1v5.1c7.6,7.9,14.7,15.2,46.5,25.5
		C78.9,39.1,87.8,48.5,90.7,52.6 M6.1,102h84.6V61.9H64.1l-15.8,38.4L32.4,70.5l-26.4,18V102z"/>
	<path id="XMLID_15_" class="st0" d="M348.7,59.6l2.4,5.4h1.2l2.4-5.4l0,0l-0.1,5.4h1.3v-6.5H354l-2.2,5l-2.3-5h-2V65h1.3
		L348.7,59.6L348.7,59.6z M343.8,64.9v-5.5h2.4v-1H340v1h2.4v5.5H343.8z"/>
	<path id="XMLID_12_" class="st0" d="M181.5,123.9l5.1,8.7h-10.1L181.5,123.9z M181.5,113.5L181.5,113.5l-17.8,30.4l0,0h6.2l0,0
		l6-10.3l3.1,4.7h10.9l3.3,5.6l0,0h6l0,0L181.5,113.5L181.5,113.5z"/>
	<path id="XMLID_9_" class="st0" d="M280.9,123.9l5.1,8.7h-10.1L280.9,123.9z M280.9,113.5L280.9,113.5l-17.8,30.4l0,0h6.2l0,0
		l6-10.3l3,4.7h11l3.3,5.6l0,0h6l0,0L280.9,113.5L280.9,113.5z"/>
	<polygon id="XMLID_8_" class="st0" points="320.5,143.9 350.3,143.9 350.3,138.2 326.2,138.2 326.2,118.3 320.5,113.5 	"/>
	<polygon id="XMLID_7_" class="st0" points="469.5,114.4 469.5,120.1 483,120.1 483,143.9 488.6,143.9 488.6,120.1 502.1,120.1 
		502.1,114.4 	"/>
	<polygon id="XMLID_6_" class="st0" points="215.2,114.4 215.2,120.1 228.7,120.1 228.7,143.9 234.4,143.9 234.4,120.1 247.9,120.1 
		247.9,114.4 	"/>
	<polygon id="XMLID_5_" class="st0" points="390.2,114.4 381.1,125.4 372,114.4 365.3,114.4 378.3,130.6 378.3,143.9 381.1,143.9 
		383.9,143.9 383.9,130.6 396.9,114.4 	"/>
	<path id="XMLID_4_" class="st0" d="M442.2,132c1.7,0,3.1,1.4,3.1,3.1c0,1.7-1.4,3.1-3.1,3.1H431h-16.6l6.9,5.8h9.7h11
		c4.9,0,8.8-3.9,8.8-8.8s-3.9-8.8-8.8-8.8h-15.9c-1.7,0-3.1-1.4-3.1-3.1s1.4-3.1,3.1-3.1h22.8v-5.7h-22.6c-4.9,0-8.8,3.9-8.8,8.8
		c0,4.9,3.9,8.8,8.8,8.8L442.2,132z"/>
	<path id="XMLID_3_" class="st0" d="M126.7,120.1c-5,0-9.1,4.1-9.1,9.1c0,5,4.1,9.1,9.1,9.1h14.8v5.7h-14.8
		c-8.1,0-14.7-6.6-14.7-14.7c0-8.1,6.6-14.7,14.7-14.7h14.8v5.7h-14.8V120.1z"/>
</g>
</svg>
